<svg xmlns="http://www.w3.org/2000/svg" xmlns:xlink="http://www.w3.org/1999/xlink"><defs>
<filter id="filter0_d" x="0" y="19.9602" width="91.2519" height="86.6821" filterUnits="userSpaceOnUse" color-interpolation-filters="sRGB">
<feFlood flood-opacity="0" result="BackgroundImageFix"/>
<feColorMatrix in="SourceAlpha" type="matrix" values="0 0 0 0 0 0 0 0 0 0 0 0 0 0 0 0 0 0 127 0"/>
<feOffset dy="4"/>
<feGaussianBlur stdDeviation="5"/>
<feColorMatrix type="matrix" values="0 0 0 0 0 0 0 0 0 0 0 0 0 0 0 0 0 0 0.15 0"/>
<feBlend mode="normal" in2="BackgroundImageFix" result="effect1_dropShadow"/>
<feBlend mode="normal" in="SourceGraphic" in2="effect1_dropShadow" result="shape"/>
</filter>
<linearGradient id="paint0_linear" x1="126.788" y1="7.16742" x2="124.512" y2="137.263" gradientUnits="userSpaceOnUse">
<stop stop-color="white" stop-opacity="0"/>
<stop offset="1" stop-color="#64B5F6" stop-opacity="0.6"/>
</linearGradient>
<linearGradient id="paint1_linear" x1="106.231" y1="68.2091" x2="102.384" y2="103.452" gradientUnits="userSpaceOnUse">
<stop stop-color="#42A5F5"/>
<stop offset="1" stop-color="#1565C0"/>
</linearGradient>
<linearGradient id="paint2_linear" x1="62.5339" y1="105.322" x2="104.455" y2="110.833" gradientUnits="userSpaceOnUse">
<stop stop-color="#FFE082"/>
<stop offset="1" stop-color="#FFA726"/>
</linearGradient>
<linearGradient id="paint3_linear" x1="9417.78" y1="2544.52" x2="9420.77" y2="2315.66" gradientUnits="userSpaceOnUse">
<stop stop-color="#FFE082"/>
<stop offset="1" stop-color="#FFA726"/>
</linearGradient>
<linearGradient id="paint4_linear" x1="14987.3" y1="4075.82" x2="15780.5" y2="4075.82" gradientUnits="userSpaceOnUse">
<stop stop-color="#FFE082"/>
<stop offset="1" stop-color="#FFA726"/>
</linearGradient>
<linearGradient id="paint5_linear" x1="42948.6" y1="15103.6" x2="48847.7" y2="20773.6" gradientUnits="userSpaceOnUse">
<stop stop-color="#42A5F5"/>
<stop offset="1" stop-color="#1565C0"/>
</linearGradient>
<linearGradient id="paint6_linear" x1="23009.9" y1="12265.9" x2="22606.5" y2="9747.27" gradientUnits="userSpaceOnUse">
<stop stop-color="#FFE082"/>
<stop offset="1" stop-color="#FFA726"/>
</linearGradient>

<filter id="filter0_d" x="41.1387" y="0" width="71.1381" height="70.8561" filterUnits="userSpaceOnUse" color-interpolation-filters="sRGB">
<feFlood flood-opacity="0" result="BackgroundImageFix"/>
<feColorMatrix in="SourceAlpha" type="matrix" values="0 0 0 0 0 0 0 0 0 0 0 0 0 0 0 0 0 0 127 0"/>
<feOffset dx="5" dy="5"/>
<feGaussianBlur stdDeviation="7.5"/>
<feColorMatrix type="matrix" values="0 0 0 0 0 0 0 0 0 0 0 0 0 0 0 0 0 0 0.15 0"/>
<feBlend mode="normal" in2="BackgroundImageFix" result="effect1_dropShadow"/>
<feBlend mode="normal" in="SourceGraphic" in2="effect1_dropShadow" result="shape"/>
</filter>
<filter id="filter1_d" x="183" y="103" width="71.1381" height="70.8561" filterUnits="userSpaceOnUse" color-interpolation-filters="sRGB">
<feFlood flood-opacity="0" result="BackgroundImageFix"/>
<feColorMatrix in="SourceAlpha" type="matrix" values="0 0 0 0 0 0 0 0 0 0 0 0 0 0 0 0 0 0 127 0"/>
<feOffset dx="5" dy="5"/>
<feGaussianBlur stdDeviation="7.5"/>
<feColorMatrix type="matrix" values="0 0 0 0 0 0 0 0 0 0 0 0 0 0 0 0 0 0 0.15 0"/>
<feBlend mode="normal" in2="BackgroundImageFix" result="effect1_dropShadow"/>
<feBlend mode="normal" in="SourceGraphic" in2="effect1_dropShadow" result="shape"/>
</filter>
<filter id="filter2_d" x="0" y="103" width="71.1381" height="70.8561" filterUnits="userSpaceOnUse" color-interpolation-filters="sRGB">
<feFlood flood-opacity="0" result="BackgroundImageFix"/>
<feColorMatrix in="SourceAlpha" type="matrix" values="0 0 0 0 0 0 0 0 0 0 0 0 0 0 0 0 0 0 127 0"/>
<feOffset dx="5" dy="5"/>
<feGaussianBlur stdDeviation="7.5"/>
<feColorMatrix type="matrix" values="0 0 0 0 0 0 0 0 0 0 0 0 0 0 0 0 0 0 0.15 0"/>
<feBlend mode="normal" in2="BackgroundImageFix" result="effect1_dropShadow"/>
<feBlend mode="normal" in="SourceGraphic" in2="effect1_dropShadow" result="shape"/>
</filter>
<filter id="filter3_d" x="138" y="0" width="71.1381" height="70.8561" filterUnits="userSpaceOnUse" color-interpolation-filters="sRGB">
<feFlood flood-opacity="0" result="BackgroundImageFix"/>
<feColorMatrix in="SourceAlpha" type="matrix" values="0 0 0 0 0 0 0 0 0 0 0 0 0 0 0 0 0 0 127 0"/>
<feOffset dx="5" dy="5"/>
<feGaussianBlur stdDeviation="7.5"/>
<feColorMatrix type="matrix" values="0 0 0 0 0 0 0 0 0 0 0 0 0 0 0 0 0 0 0.15 0"/>
<feBlend mode="normal" in2="BackgroundImageFix" result="effect1_dropShadow"/>
<feBlend mode="normal" in="SourceGraphic" in2="effect1_dropShadow" result="shape"/>
</filter>
<linearGradient id="paint0_linear" x1="122.273" y1="76.8651" x2="120.029" y2="207.076" gradientUnits="userSpaceOnUse">
<stop stop-color="white" stop-opacity="0"/>
<stop offset="1" stop-color="#64B5F6" stop-opacity="0.6"/>
</linearGradient>
<linearGradient id="paint1_linear" x1="134.409" y1="136.165" x2="152.559" y2="168.279" gradientUnits="userSpaceOnUse">
<stop stop-color="#E57373"/>
<stop offset="1" stop-color="#AD1457"/>
</linearGradient>
<linearGradient id="paint2_linear" x1="28141.2" y1="39794.5" x2="26229.2" y2="49295.9" gradientUnits="userSpaceOnUse">
<stop stop-color="#E57373"/>
<stop offset="1" stop-color="#AD1457"/>
</linearGradient>
<linearGradient id="paint3_linear" x1="202.122" y1="147.94" x2="152.589" y2="176.833" gradientUnits="userSpaceOnUse">
<stop stop-color="#FFF8E1"/>
<stop offset="1" stop-color="#FFCC80"/>
</linearGradient>
<linearGradient id="paint4_linear" x1="21652.4" y1="22319.6" x2="18981.7" y2="20506.4" gradientUnits="userSpaceOnUse">
<stop stop-color="#FFF8E1"/>
<stop offset="1" stop-color="#FFCC80"/>
</linearGradient>
<linearGradient id="paint5_linear" x1="138.703" y1="113.439" x2="111.661" y2="124.652" gradientUnits="userSpaceOnUse">
<stop stop-color="#FFF8E1"/>
<stop offset="1" stop-color="#FFCC80"/>
</linearGradient>
<linearGradient id="paint6_linear" x1="132.486" y1="84.1463" x2="101.053" y2="126.911" gradientUnits="userSpaceOnUse">
<stop stop-color="#FFB74D"/>
<stop offset="1" stop-color="#F4511E"/>
</linearGradient>

<filter id="filter0_d" x="403" y="84" width="188" height="188" filterUnits="userSpaceOnUse" color-interpolation-filters="sRGB">
<feFlood flood-opacity="0" result="BackgroundImageFix"/>
<feColorMatrix in="SourceAlpha" type="matrix" values="0 0 0 0 0 0 0 0 0 0 0 0 0 0 0 0 0 0 127 0"/>
<feOffset/>
<feGaussianBlur stdDeviation="25"/>
<feColorMatrix type="matrix" values="0 0 0 0 0.0627451 0 0 0 0 0.439216 0 0 0 0 0.694118 0 0 0 0.25 0"/>
<feBlend mode="normal" in2="BackgroundImageFix" result="effect1_dropShadow"/>
<feBlend mode="normal" in="SourceGraphic" in2="effect1_dropShadow" result="shape"/>
</filter>
<filter id="filter1_d" x="396.139" y="0.756439" width="71.1382" height="60.6441" filterUnits="userSpaceOnUse" color-interpolation-filters="sRGB">
<feFlood flood-opacity="0" result="BackgroundImageFix"/>
<feColorMatrix in="SourceAlpha" type="matrix" values="0 0 0 0 0 0 0 0 0 0 0 0 0 0 0 0 0 0 127 0"/>
<feOffset dx="5" dy="5"/>
<feGaussianBlur stdDeviation="7.5"/>
<feColorMatrix type="matrix" values="0 0 0 0 0 0 0 0 0 0 0 0 0 0 0 0 0 0 0.15 0"/>
<feBlend mode="normal" in2="BackgroundImageFix" result="effect1_dropShadow"/>
<feBlend mode="normal" in="SourceGraphic" in2="effect1_dropShadow" result="shape"/>
</filter>
<filter id="filter2_d" x="570" y="78.0114" width="71.1382" height="60.6441" filterUnits="userSpaceOnUse" color-interpolation-filters="sRGB">
<feFlood flood-opacity="0" result="BackgroundImageFix"/>
<feColorMatrix in="SourceAlpha" type="matrix" values="0 0 0 0 0 0 0 0 0 0 0 0 0 0 0 0 0 0 127 0"/>
<feOffset dx="5" dy="5"/>
<feGaussianBlur stdDeviation="7.5"/>
<feColorMatrix type="matrix" values="0 0 0 0 0 0 0 0 0 0 0 0 0 0 0 0 0 0 0.15 0"/>
<feBlend mode="normal" in2="BackgroundImageFix" result="effect1_dropShadow"/>
<feBlend mode="normal" in="SourceGraphic" in2="effect1_dropShadow" result="shape"/>
</filter>
<filter id="filter3_d" x="350" y="78.0114" width="71.1382" height="60.6441" filterUnits="userSpaceOnUse" color-interpolation-filters="sRGB">
<feFlood flood-opacity="0" result="BackgroundImageFix"/>
<feColorMatrix in="SourceAlpha" type="matrix" values="0 0 0 0 0 0 0 0 0 0 0 0 0 0 0 0 0 0 127 0"/>
<feOffset dx="5" dy="5"/>
<feGaussianBlur stdDeviation="7.5"/>
<feColorMatrix type="matrix" values="0 0 0 0 0 0 0 0 0 0 0 0 0 0 0 0 0 0 0.15 0"/>
<feBlend mode="normal" in2="BackgroundImageFix" result="effect1_dropShadow"/>
<feBlend mode="normal" in="SourceGraphic" in2="effect1_dropShadow" result="shape"/>
</filter>
<filter id="filter4_d" x="524" y="0.756439" width="71.1382" height="60.6441" filterUnits="userSpaceOnUse" color-interpolation-filters="sRGB">
<feFlood flood-opacity="0" result="BackgroundImageFix"/>
<feColorMatrix in="SourceAlpha" type="matrix" values="0 0 0 0 0 0 0 0 0 0 0 0 0 0 0 0 0 0 127 0"/>
<feOffset dx="5" dy="5"/>
<feGaussianBlur stdDeviation="7.5"/>
<feColorMatrix type="matrix" values="0 0 0 0 0 0 0 0 0 0 0 0 0 0 0 0 0 0 0.15 0"/>
<feBlend mode="normal" in2="BackgroundImageFix" result="effect1_dropShadow"/>
<feBlend mode="normal" in="SourceGraphic" in2="effect1_dropShadow" result="shape"/>
</filter>
<filter id="filter5_d" x="174" y="283" width="101" height="70" filterUnits="userSpaceOnUse" color-interpolation-filters="sRGB">
<feFlood flood-opacity="0" result="BackgroundImageFix"/>
<feColorMatrix in="SourceAlpha" type="matrix" values="0 0 0 0 0 0 0 0 0 0 0 0 0 0 0 0 0 0 127 0"/>
<feOffset dx="5" dy="5"/>
<feGaussianBlur stdDeviation="5"/>
<feColorMatrix type="matrix" values="0 0 0 0 0.0627451 0 0 0 0 0.439216 0 0 0 0 0.694118 0 0 0 0.2 0"/>
<feBlend mode="normal" in2="BackgroundImageFix" result="effect1_dropShadow"/>
<feBlend mode="normal" in="SourceGraphic" in2="effect1_dropShadow" result="shape"/>
</filter>
<filter id="filter6_d" x="271" y="364" width="174" height="83" filterUnits="userSpaceOnUse" color-interpolation-filters="sRGB">
<feFlood flood-opacity="0" result="BackgroundImageFix"/>
<feColorMatrix in="SourceAlpha" type="matrix" values="0 0 0 0 0 0 0 0 0 0 0 0 0 0 0 0 0 0 127 0"/>
<feOffset dy="4"/>
<feGaussianBlur stdDeviation="5"/>
<feColorMatrix type="matrix" values="0 0 0 0 0.435294 0 0 0 0 0.811765 0 0 0 0 0.592157 0 0 0 0.2 0"/>
<feBlend mode="normal" in2="BackgroundImageFix" result="effect1_dropShadow"/>
<feBlend mode="normal" in="SourceGraphic" in2="effect1_dropShadow" result="shape"/>
</filter>
<linearGradient id="paint0_linear" x1="375.616" y1="-62.3187" x2="337.792" y2="608.507" gradientUnits="userSpaceOnUse">
<stop stop-color="#D1ECFF"/>
<stop offset="1" stop-color="#1070B1"/>
</linearGradient>
<linearGradient id="paint1_linear" x1="559.735" y1="224.576" x2="507.964" y2="258.395" gradientUnits="userSpaceOnUse">
<stop stop-color="#FFF8E1"/>
<stop offset="1" stop-color="#FFCC80"/>
</linearGradient>
<linearGradient id="paint2_linear" x1="585.978" y1="241.241" x2="585.978" y2="318.5" gradientUnits="userSpaceOnUse">
<stop stop-color="#AF6CED"/>
<stop offset="1" stop-color="#5E199D"/>
</linearGradient>
<linearGradient id="paint3_linear" x1="633.728" y1="301.5" x2="633.728" y2="411.5" gradientUnits="userSpaceOnUse">
<stop stop-color="#EB5757"/>
<stop offset="1" stop-color="#872727"/>
</linearGradient>
<linearGradient id="paint4_linear" x1="575.716" y1="231.146" x2="557.595" y2="238.755" gradientUnits="userSpaceOnUse">
<stop stop-color="#FFF8E1"/>
<stop offset="1" stop-color="#FFCC80"/>
</linearGradient>
<linearGradient id="paint5_linear" x1="588.276" y1="291.08" x2="576.596" y2="312.359" gradientUnits="userSpaceOnUse">
<stop stop-color="#FFF8E1"/>
<stop offset="1" stop-color="#FFCC80"/>
</linearGradient>
<linearGradient id="paint6_linear" x1="193.393" y1="331.155" x2="498.893" y2="364.655" gradientUnits="userSpaceOnUse">
<stop offset="0.127122" stop-color="white"/>
<stop offset="0.972261" stop-color="white" stop-opacity="0.8"/>
</linearGradient>
<clipPath id="clip0">
<rect x="369" y="94.0118" width="24" height="18.0012" fill="white"/>
</clipPath>
<clipPath id="clip1">
<rect x="296" y="295" width="48" height="48" fill="white"/>
</clipPath>

<filter id="filter0_d" x="0" y="47.8425" width="116.145" height="76.2761" filterUnits="userSpaceOnUse" color-interpolation-filters="sRGB">
<feFlood flood-opacity="0" result="BackgroundImageFix"/>
<feColorMatrix in="SourceAlpha" type="matrix" values="0 0 0 0 0 0 0 0 0 0 0 0 0 0 0 0 0 0 127 0"/>
<feOffset dx="5" dy="5"/>
<feGaussianBlur stdDeviation="10"/>
<feColorMatrix type="matrix" values="0 0 0 0 0 0 0 0 0 0 0 0 0 0 0 0 0 0 0.2 0"/>
<feBlend mode="normal" in2="BackgroundImageFix" result="effect1_dropShadow"/>
<feBlend mode="normal" in="SourceGraphic" in2="effect1_dropShadow" result="shape"/>
</filter>
<linearGradient id="paint0_linear" x1="105.193" y1="8.09361" x2="102.971" y2="137.225" gradientUnits="userSpaceOnUse">
<stop stop-color="white" stop-opacity="0"/>
<stop offset="1" stop-color="#64B5F6" stop-opacity="0.6"/>
</linearGradient>
<linearGradient id="paint1_linear" x1="75.3992" y1="57.2807" x2="156.655" y2="57.2807" gradientUnits="userSpaceOnUse">
<stop stop-color="#EF9A9A"/>
<stop offset="1" stop-color="#D81B60"/>
</linearGradient>
<linearGradient id="paint2_linear" x1="76.6834" y1="82.8826" x2="74.2742" y2="110.514" gradientUnits="userSpaceOnUse">
<stop stop-color="#7E57C2"/>
<stop offset="1" stop-color="#4527A0"/>
</linearGradient>
<linearGradient id="paint3_linear" x1="6813.02" y1="2527.43" x2="6789.49" y2="3103.43" gradientUnits="userSpaceOnUse">
<stop stop-color="#7E57C2"/>
<stop offset="1" stop-color="#4527A0"/>
</linearGradient>
<linearGradient id="paint4_linear" x1="20341.2" y1="14858" x2="24468.7" y2="22492.9" gradientUnits="userSpaceOnUse">
<stop stop-color="#7E57C2"/>
<stop offset="1" stop-color="#4527A0"/>
</linearGradient>
<linearGradient id="paint5_linear" x1="13960.4" y1="9770.53" x2="17624.5" y2="15926.1" gradientUnits="userSpaceOnUse">
<stop stop-color="#7E57C2"/>
<stop offset="1" stop-color="#4527A0"/>
</linearGradient>
<linearGradient id="paint6_linear" x1="118.758" y1="72.7489" x2="113.038" y2="119.812" gradientUnits="userSpaceOnUse">
<stop offset="0.14" stop-color="#7E57C2" stop-opacity="0"/>
<stop offset="0.26" stop-color="#724DBB" stop-opacity="0.21"/>
<stop offset="0.48" stop-color="#5F3DAF" stop-opacity="0.55"/>
<stop offset="0.66" stop-color="#5131A7" stop-opacity="0.79"/>
<stop offset="0.81" stop-color="#482AA2" stop-opacity="0.94"/>
<stop offset="0.91" stop-color="#4527A0"/>
</linearGradient>
<linearGradient id="paint7_linear" x1="27.4541" y1="97.7496" x2="91.1454" y2="97.7496" gradientUnits="userSpaceOnUse">
<stop stop-color="#D2D4D5"/>
<stop offset="1" stop-color="#AAACAE"/>
</linearGradient>
<linearGradient id="paint8_linear" x1="537.989" y1="4198.71" x2="4142.02" y2="8332.05" gradientUnits="userSpaceOnUse">
<stop stop-color="#D2D4D5"/>
<stop offset="1" stop-color="#AAACAE"/>
</linearGradient>
<linearGradient id="paint9_linear" x1="43.5767" y1="94.557" x2="63.884" y2="103.338" gradientUnits="userSpaceOnUse">
<stop stop-color="#FFF8E1"/>
<stop offset="1" stop-color="#FFCC80"/>
</linearGradient>
<linearGradient id="paint10_linear" x1="7875.06" y1="2941.73" x2="8393.29" y2="3509.97" gradientUnits="userSpaceOnUse">
<stop stop-color="#FFF8E1"/>
<stop offset="1" stop-color="#FFCC80"/>
</linearGradient>
<linearGradient id="paint11_linear" x1="8044.47" y1="3227.22" x2="8499.41" y2="4088.69" gradientUnits="userSpaceOnUse">
<stop stop-color="#FFF8E1"/>
<stop offset="1" stop-color="#FFCC80"/>
</linearGradient>
</defs><symbol id="img-arrow" viewBox="0 0 16 16">
<path d="M8 0L6.59 1.41L12.17 7H0V9H12.17L6.59 14.59L8 16L16 8L8 0Z" fill="#5A98D0"/>
</symbol><symbol id="img-business" viewBox="0 0 192 132">
<path d="M191.995 66C191.988 78.1292 188.67 90.0225 182.403 100.377C176.136 110.731 167.163 119.146 156.467 124.701C155.841 125.031 155.205 125.347 154.564 125.652C154.276 125.795 153.993 125.927 153.7 126.06C151.872 126.905 149.997 127.663 148.075 128.335C146.56 128.869 145.005 129.353 143.435 129.77C128.603 133.752 112.856 132.371 98.9295 125.866C98.3589 125.596 97.7883 125.322 97.2279 125.037C86.8009 119.779 77.9557 111.81 71.6062 101.952C65.2567 92.0955 61.6331 80.7081 61.1099 68.967C60.5867 57.2258 63.1828 45.5568 68.6301 35.1656C74.0773 24.7743 82.178 16.0377 92.0953 9.85855C102.013 3.67936 113.387 0.28168 125.042 0.0165558C136.698 -0.248568 148.213 2.62848 158.396 8.35045C168.58 14.0724 177.063 22.4318 182.97 32.5647C188.876 42.6977 191.992 54.2368 191.995 65.9898V66Z" fill="url(#paint0_linear)"/>
<path d="M100.854 106.742L93.623 95.3554C93.623 95.3554 113.654 72.0115 115.659 70.6321C115.659 70.6321 105.555 87.72 100.854 106.742Z" fill="url(#paint1_linear)"/>
<path d="M93.623 95.3553L79.9896 107.572L54.9093 95.3553L35.7217 96.4141C35.7217 96.4141 47.6735 100.486 51.0364 100.318L54.4044 100.15C54.4044 100.15 75.0008 120.17 79.7372 121.697C84.4735 123.224 100.031 111.252 100.031 111.252L100.934 106.778L93.623 95.3553Z" fill="url(#paint2_linear)"/>
<path d="M131.241 67.8681C129.346 68.7928 127.309 69.385 125.217 69.6191C122.798 69.9856 119.122 68.6316 119.122 68.6316C121.899 66.4276 121.253 61.2304 121.253 61.2304L121.313 61.1999C124.277 60.9708 126.757 59.2758 128.489 57.6367C127.863 62.0856 131.241 67.8681 131.241 67.8681Z" fill="url(#paint3_linear)"/>
<path d="M131.241 51.3146V54.3688C130.452 55.5553 129.53 56.6466 128.494 57.6214C126.762 59.2656 124.283 60.9606 121.319 61.1846C119.972 61.2883 118.62 61.0884 117.36 60.5992C109.281 57.5451 114.962 41.3836 114.962 41.3836C117.527 34.807 129.14 37.9884 129.14 37.9884C130.695 39.8565 130.993 45.074 130.933 45.583C130.674 46.2982 130.335 46.9813 129.923 47.6191C129.923 47.6191 132.13 45.5219 132.887 46.9167C133.644 48.3114 131.241 51.3146 131.241 51.3146Z" fill="url(#paint4_linear)"/>
<path d="M131.241 54.379V51.3249C131.241 51.3249 133.639 48.3471 132.882 46.9422C132.125 45.5373 129.918 47.6446 129.918 47.6446C130.33 47.0068 130.669 46.3237 130.928 45.6085C130.988 45.0995 130.736 40.1772 129.135 38.0139C129.135 38.0139 117.522 34.8325 114.957 41.4091C114.957 41.4091 111.634 40.559 108.771 36.5734C104.09 30.0528 109.68 29.2536 115.219 30.5109C121.94 32.038 128.676 27.0292 136.376 32.1194C144.076 37.2096 137.174 48.7797 131.241 54.379Z" fill="#262F72"/>
<g filter="url(#filter0_d)">
<path d="M78.3838 25.9602H12.8681C11.2841 25.9602 10 27.2547 10 28.8515V89.751C10 91.3478 11.2841 92.6423 12.8681 92.6423H78.3838C79.9678 92.6423 81.2519 91.3478 81.2519 89.751V28.8515C81.2519 27.2547 79.9678 25.9602 78.3838 25.9602Z" fill="white"/>
</g>
<path d="M20.9116 38.0444C20.7297 38.2519 20.4961 38.4065 20.235 38.4924C19.9234 38.6014 19.5953 38.6548 19.2655 38.6502C18.9232 38.658 18.5851 38.5737 18.2859 38.4058C18.0025 38.2399 17.7755 37.9915 17.6346 37.6932C17.4741 37.3495 17.3929 36.9736 17.3972 36.5937V36.2985C17.3881 35.9121 17.4621 35.5283 17.6144 35.1735C17.7452 34.8726 17.9636 34.6188 18.2405 34.4456C18.5756 34.2627 18.9544 34.1768 19.3349 34.1975C19.7155 34.2181 20.0829 34.3445 20.3966 34.5627C20.6978 34.8403 20.879 35.2259 20.9015 35.6367H20.0381C20.0185 35.4292 19.9253 35.2358 19.7755 35.0921C19.6168 34.9694 19.4198 34.9081 19.2201 34.919C19.0854 34.9114 18.9512 34.9388 18.8301 34.9985C18.7089 35.0582 18.605 35.1483 18.5283 35.2601C18.3511 35.5683 18.2685 35.9226 18.291 36.2781V36.553C18.2691 36.9111 18.3592 37.2672 18.5485 37.571C18.6359 37.6871 18.7501 37.7799 18.8813 37.8411C19.0125 37.9024 19.1565 37.9302 19.3009 37.9223C19.5565 37.9448 19.8111 37.8683 20.0128 37.7085V36.9602H19.2049V36.3036H20.9015L20.9116 38.0444Z" fill="#64B5F6"/>
<path d="M72.8299 34.1912H26.4059C25.8398 34.1912 25.3809 34.6538 25.3809 35.2245V38.9811C25.3809 39.5518 25.8398 40.0144 26.4059 40.0144H72.8299C73.396 40.0144 73.8549 39.5518 73.8549 38.9811V35.2245C73.8549 34.6538 73.396 34.1912 72.8299 34.1912Z" fill="#E7EEF2"/>
<path d="M73.8549 43.3026H25.3809V44.3207H73.8549V43.3026Z" fill="#BBDEFB"/>
<path d="M73.8549 45.5933H25.3809V46.6113H73.8549V45.5933Z" fill="#E7E8E9"/>
<path d="M73.8549 47.8838H25.3809V48.9018H73.8549V47.8838Z" fill="#E7E8E9"/>
<path d="M73.8549 50.1744H25.3809V51.1925H73.8549V50.1744Z" fill="#E7E8E9"/>
<path d="M73.8549 54.4604H25.3809V55.4785H73.8549V54.4604Z" fill="#BBDEFB"/>
<path d="M73.8549 56.751H25.3809V57.769H73.8549V56.751Z" fill="#E7E8E9"/>
<path d="M73.8549 59.0416H25.3809V60.0597H73.8549V59.0416Z" fill="#E7E8E9"/>
<path d="M73.8549 61.3323H25.3809V62.3503H73.8549V61.3323Z" fill="#E7E8E9"/>
<path d="M73.8549 65.491H25.3809V66.509H73.8549V65.491Z" fill="#BBDEFB"/>
<path d="M73.8549 67.7816H25.3809V68.7997H73.8549V67.7816Z" fill="#E7E8E9"/>
<path d="M73.8549 70.0721H25.3809V71.0902H73.8549V70.0721Z" fill="#E7E8E9"/>
<path d="M73.8549 72.3628H25.3809V73.3809H73.8549V72.3628Z" fill="#E7E8E9"/>
<path d="M73.8549 76.5215H25.3809V77.5395H73.8549V76.5215Z" fill="#BBDEFB"/>
<path d="M73.8549 78.8121H25.3809V79.8302H73.8549V78.8121Z" fill="#E7E8E9"/>
<path d="M73.8549 81.1027H25.3809V82.1207H73.8549V81.1027Z" fill="#E7E8E9"/>
<path d="M73.8549 83.3933H25.3809V84.4114H73.8549V83.3933Z" fill="#E7E8E9"/>
<path d="M148.707 92.4591C152.161 102.823 154.721 114.82 156.468 124.701C155.842 125.032 155.206 125.347 154.564 125.653C154.276 125.795 153.994 125.927 153.701 126.06C151.873 126.905 149.998 127.663 148.076 128.335C146.561 128.87 145.006 129.353 143.435 129.771C128.604 133.752 112.857 132.371 98.9302 125.866C98.3596 125.597 97.789 125.322 97.2285 125.037C98.2384 119.809 99.4401 113.665 100.849 106.747C101.361 104.24 101.898 101.63 102.46 98.9186C105.353 85.0273 109.504 77.4633 112.932 73.3656L112.967 73.3249C113.619 72.5459 114.324 71.8144 115.078 71.1361C115.099 71.1114 115.123 71.0893 115.149 71.0699C115.32 70.9172 115.492 70.7747 115.654 70.6372C117.719 68.9422 119.123 68.6317 119.123 68.6317L119.249 68.6775H119.32C120.416 69.1135 121.566 69.3994 122.738 69.5276H122.935H122.965C123.714 69.5998 124.467 69.6117 125.217 69.5632H125.263C127.347 69.4293 129.377 68.8387 131.211 67.8325C133.362 68.5497 135.388 69.6026 137.215 70.9528C142.436 74.8163 152.954 88.9825 152.954 88.9825L148.707 92.4591Z" fill="url(#paint5_linear)"/>
<path d="M167.939 111.802C167.909 113.217 166.632 116.088 164.763 119.57C162.127 121.487 159.352 123.202 156.462 124.701C155.836 125.031 155.2 125.347 154.558 125.652C154.271 125.795 153.988 125.927 153.695 126.06C151.867 126.905 149.992 127.663 148.07 128.335L152.948 112.662L140.324 99.3003L148.701 92.459L152.948 88.9926C152.948 88.9926 168.071 106.33 167.939 111.802Z" fill="url(#paint6_linear)"/>

</symbol><symbol id="img-home" viewBox="0 0 255 208">
<path d="M188.522 135.763C188.53 144.946 186.606 154.029 182.874 162.431C179.141 170.833 173.683 178.367 166.848 184.552C164.946 186.274 162.947 187.886 160.861 189.382C158.183 191.301 155.363 193.017 152.427 194.517H152.396C151.77 194.844 151.134 195.154 150.493 195.455C150.2 195.598 149.913 195.73 149.616 195.863C147.758 196.708 145.854 197.467 143.901 198.14C142.362 198.649 140.782 199.159 139.186 199.577C129.983 202.008 120.363 202.458 110.971 200.896C109.857 200.713 108.76 200.504 107.667 200.265L106.743 200.056C103.956 199.409 101.214 198.582 98.5353 197.58C96.9792 196.999 95.4539 196.362 93.9593 195.669C93.3796 195.399 92.7999 195.124 92.2304 194.838C91.8406 194.645 91.4558 194.446 91.071 194.247C80.6328 188.803 71.839 180.702 65.5902 170.772C59.3414 160.843 55.862 149.442 55.5084 137.738C55.1549 126.034 57.9398 114.447 63.578 104.163C69.2162 93.8798 77.5051 85.2691 87.5959 79.2132C97.6868 73.1572 109.217 69.8736 121.006 69.6985C132.795 69.5235 144.418 72.4633 154.687 78.2169C164.956 83.9705 173.5 92.3311 179.445 102.443C185.391 112.554 188.523 124.054 188.522 135.763Z" fill="url(#paint0_linear)"/>
<path d="M139.432 140.542C143.669 144.873 156.012 161.727 156.012 161.727L148.43 172.767L141.612 150.834L139.432 140.542Z" fill="url(#paint1_linear)"/>
<path d="M152.396 194.553C151.77 194.879 151.134 195.19 150.492 195.491C150.2 195.633 149.913 195.766 149.615 195.898C147.758 196.744 145.853 197.503 143.9 198.176C142.361 198.685 140.781 199.195 139.186 199.612C129.983 202.044 120.363 202.494 110.97 200.932C109.857 200.749 108.759 200.54 107.666 200.3C103.665 203.041 99.9713 205.359 97.5243 206.414L97.7243 204.718L98.5554 197.62L100.479 181.108L108.102 173.786L90.9629 175.106C90.9629 175.106 92.7635 150.294 99.7918 145.189C106.82 140.083 114.192 135.508 114.192 135.508C115.071 136.084 116.04 136.513 117.06 136.777C119.497 137.446 122.031 137.703 124.555 137.536C127.561 137.398 130.567 134.622 130.711 134.479C130.711 134.479 135.43 135.411 139.432 140.562C141.428 143.214 142.86 146.24 143.644 149.458C144.629 153.223 146.378 162.017 148.369 172.64C149.672 179.477 151.041 187.059 152.396 194.553Z" fill="url(#paint2_linear)"/>
<path d="M156.012 161.747L163.328 170.261L189.055 144.898L190.03 139.706L195.16 135.279L192.877 142.03V150.823C192.877 150.823 173.034 182.769 167.565 184.414C161.168 186.345 148.44 172.757 148.44 172.757L156.012 161.747Z" fill="url(#paint3_linear)"/>
<path d="M129.306 173.389L135.272 187.655L142.982 184.363L137.329 170.403L129.306 173.389Z" fill="#7E57C2"/>
<path d="M137.616 182.606C136.657 183.39 135.225 183.207 133.45 183.298C131.066 183.361 128.778 184.251 126.986 185.815C124.601 187.807 117.932 193.02 111.263 197.778C110.052 198.639 108.841 199.49 107.672 200.326C103.67 203.067 99.9766 205.385 97.5295 206.439C96.8862 206.757 96.1915 206.958 95.4775 207.036C92.0506 207.122 91.317 199.989 91.1066 194.298C91.04 192.408 91.0246 190.681 90.9886 189.433C90.845 184.44 90.9886 175.167 90.9886 175.167L108.128 173.842L106.312 185.632L105.994 187.716V187.731L111.124 185.846L111.283 185.79L129.495 179.07L130.752 176.915L131.552 178.952H131.629L139.427 177.934C139.427 177.934 139.56 181.021 137.616 182.606Z" fill="url(#paint4_linear)"/>
<path d="M133.681 108.25C133.234 107.038 132.85 106.212 132.737 105.968V105.907C132.737 105.907 132.342 106.875 129.366 106.64C126.391 106.406 125.406 104.939 125.406 104.939C125.406 104.939 126.34 108.118 122.795 109.478C119.383 110.793 118.039 109.942 117.947 109.881C118.126 110.074 120.794 112.907 119.024 115.154C117.193 117.482 113.073 117.024 113.073 117.024V117.054C113.592 118.22 114.172 119.358 114.812 120.463C115.151 121.044 115.484 121.579 115.838 122.078V122.114C116.747 123.581 117.974 124.829 119.429 125.767C118.79 129.495 116.952 132.918 114.192 135.523C115.12 136.005 116.078 136.428 117.059 136.792C118.973 137.51 121.543 138.224 123.836 138.025C126.493 137.743 128.948 136.486 130.721 134.499L129.546 130.021L128.489 125.986C138.041 123.566 135.415 113.04 133.681 108.25ZM127.956 126.133L128.125 126.093L128.397 126.016C128.001 126.186 127.583 126.299 127.155 126.353C127.376 126.296 127.602 126.235 127.838 126.164L127.956 126.133Z" fill="url(#paint5_linear)"/>
<path d="M139.432 105.774C135.492 109.371 133.789 108.357 133.681 108.261V108.25C133.235 107.038 132.85 106.212 132.743 105.968L132.717 105.907C132.717 105.907 132.317 106.875 129.341 106.64C126.366 106.406 125.386 104.939 125.386 104.939C125.386 104.939 126.32 108.118 122.775 109.478C119.358 110.793 118.014 109.942 117.927 109.881C118.107 110.069 120.774 112.902 119.004 115.149C117.173 117.477 113.053 117.024 113.053 117.024V117.049C113.572 118.217 114.152 119.356 114.792 120.463C115.134 121.04 115.476 121.579 115.818 122.078V122.114C115.818 122.114 114.413 124.86 111.904 124.804C109.396 124.748 109.339 122.256 109.339 122.256C109.339 122.256 107.564 125.435 102.08 122.373C96.5961 119.311 100.254 114.874 100.254 114.874C100.254 114.874 96.3652 111.919 96.3652 107.491C96.3652 103.064 102.419 99.696 102.419 99.696C102.419 99.696 100.254 94.5552 103.906 91.7224C107.559 88.8897 113.048 90.8104 113.048 90.8104C113.048 90.8104 112.941 84.2329 118.532 84.3399C124.124 84.4469 125.391 87.8452 125.391 87.8452C125.391 87.8452 130.419 83.9833 135.395 87.621C140.371 91.2588 138.324 97.602 138.324 97.602C138.324 97.602 143.541 102.029 139.432 105.774Z" fill="url(#paint6_linear)"/>
<path opacity="0.15" d="M129.587 130.006C127.202 129.257 122.959 126.398 122.959 126.398C124.633 126.574 126.325 126.485 127.971 126.134L128.14 126.093L128.469 125.996H128.515L129.587 130.006Z" fill="black"/>
<path opacity="0.15" d="M110.416 158.547L108.103 173.832L106.287 185.622L102.06 189.112L111.258 185.795C111.258 185.795 108.872 179.029 110.416 158.547Z" fill="black"/>
<path opacity="0.15" d="M107.656 200.3C108.749 200.54 109.847 200.749 110.96 200.932C111.016 199.888 111.119 198.833 111.263 197.778L107.656 200.3Z" fill="black"/>
<g filter="url(#filter0_d)">
<path d="M85.423 10H57.9925C54.2072 10 51.1387 13.0475 51.1387 16.8068V44.0493C51.1387 47.8086 54.2072 50.8561 57.9925 50.8561H85.423C89.2083 50.8561 92.2768 47.8086 92.2768 44.0493V16.8068C92.2768 13.0475 89.2083 10 85.423 10Z" fill="#56CCF2"/>
</g>
<path d="M82 29H77.83L81.07 25.76L79.66 24.34L75 29H73V27L77.66 22.34L76.24 20.93L73 24.17V20H71V24.17L67.76 20.93L66.34 22.34L71 27V29H69L64.34 24.34L62.93 25.76L66.17 29H62V31H66.17L62.93 34.24L64.34 35.66L69 31H71V33L66.34 37.66L67.76 39.07L71 35.83V40H73V35.83L76.24 39.07L77.66 37.66L73 33V31H75L79.66 35.66L81.07 34.24L77.83 31H82V29Z" fill="white"/>
<g filter="url(#filter1_d)">
<path d="M227.284 113H199.854C196.069 113 193 116.048 193 119.807V147.049C193 150.809 196.069 153.856 199.854 153.856H227.284C231.07 153.856 234.138 150.809 234.138 147.049V119.807C234.138 116.048 231.07 113 227.284 113Z" fill="#F2C94C"/>
</g>
<path d="M223 130C223 125 219 121 214 121C209 121 205 125 205 130C205 133.1 206.6 135.9 209 137.5V140C209 141.3 209.8 142.4 211 142.8V143C211 144.7 212.3 146 214 146C215.7 146 217 144.7 217 143V142.8C218.2 142.4 219 141.3 219 140V137.5C221.4 135.9 223 133.1 223 130ZM207 130C207 126.1 210.1 123 214 123C217.9 123 221 126.1 221 130C221 133.5 218.4 136.4 215 136.9V134.4L216.7 132.7C217.1 132.3 217.1 131.7 216.7 131.3C216.3 130.9 215.7 130.9 215.3 131.3L214 132.6L212.7 131.3C212.3 130.9 211.7 130.9 211.3 131.3C210.9 131.7 210.9 132.3 211.3 132.7L213 134.4V136.9C209.6 136.4 207 133.5 207 130ZM214 144C213.4 144 213 143.6 213 143H215C215 143.6 214.6 144 214 144ZM217 140C217 140.6 216.6 141 216 141H212C211.4 141 211 140.6 211 140V138.5C211.9 138.8 212.9 139 214 139C215.1 139 216.1 138.8 217 138.5V140Z" fill="white"/>
<g filter="url(#filter2_d)">
<path d="M44.2844 113H16.8538C13.0685 113 10 116.048 10 119.807V147.049C10 150.809 13.0685 153.856 16.8538 153.856H44.2844C48.0696 153.856 51.1381 150.809 51.1381 147.049V119.807C51.1381 116.048 48.0696 113 44.2844 113Z" fill="#F58A8A"/>
</g>
<path d="M37 130H36V128C36 125.24 33.76 123 31 123C28.24 123 26 125.24 26 128V130H25C23.9 130 23 130.9 23 132V142C23 143.1 23.9 144 25 144H37C38.1 144 39 143.1 39 142V132C39 130.9 38.1 130 37 130ZM31 139C29.9 139 29 138.1 29 137C29 135.9 29.9 135 31 135C32.1 135 33 135.9 33 137C33 138.1 32.1 139 31 139ZM34.1 130H27.9V128C27.9 126.29 29.29 124.9 31 124.9C32.71 124.9 34.1 126.29 34.1 128V130Z" fill="white"/>
<g filter="url(#filter3_d)">
<path d="M182.284 10H154.854C151.069 10 148 13.0475 148 16.8068V44.0493C148 47.8086 151.069 50.8561 154.854 50.8561H182.284C186.07 50.8561 189.138 47.8086 189.138 44.0493V16.8068C189.138 13.0475 186.07 10 182.284 10Z" fill="#6FCF97"/>
</g>
<path d="M174.311 24.8965H157.979V35.1033H174.311V24.8965Z" fill="white"/>
<path d="M178.713 26.9276L175.108 28.4427V31.6003L178.713 33.1153H180.02V26.9276H178.713Z" fill="white"/>

</symbol><symbol id="img-logo" viewBox="0 0 48 32">
<circle cx="16" cy="16" r="16" fill="#316099"/>
<circle cx="32" cy="16" r="15" fill="white" stroke="#316099" stroke-width="2"/>
<path d="M39.3 22L34.38 8H30.96L26.06 22H29.04L29.88 19.48H35.46L36.3 22H39.3ZM32.68 11.18L34.6 16.9H30.76L32.68 11.18Z" fill="#316099"/>
</symbol><symbol id="img-main" viewBox="0 0 688 624">
<path opacity="0.4" d="M624.607 75.4102C479.832 6.51749 415.969 194.909 316.138 225.906C216.394 271.253 120.215 218.176 60.8283 263.674C-33.3064 335.794 8.01039 461.963 68.2737 515.05C154.694 591.18 308.272 563.78 467.012 481.462C665.894 378.329 751.55 135.817 624.607 75.4102Z" fill="#98C3E8"/>
<path opacity="0.2" d="M143.5 150.5C148.5 163 133.5 182.5 112 189C93.4998 194.593 75.4998 194 70.4998 181C66.0767 169.5 79.9998 157 95.9998 150.5C112 144 138.5 138 143.5 150.5Z" fill="#98C3E8"/>
<path opacity="0.2" d="M307 125C303.109 115.06 316.816 91.8658 333.802 86.7986C348.419 82.4383 362.111 72.1637 366 82.5C369.44 91.6437 358.909 112.325 346.26 117.415C333.612 122.505 310.891 134.94 307 125Z" fill="#98C3E8"/>
<path opacity="0.2" d="M295.792 617.215C291.901 607.276 303.816 591.866 320.802 586.799C335.419 582.438 349.614 582.985 353.503 593.321C356.944 602.465 345.908 612.325 333.26 617.415C320.612 622.505 299.684 627.155 295.792 617.215Z" fill="#98C3E8"/>
<path opacity="0.2" d="M471.573 566.55C463.478 547.52 489.279 505.235 524.573 495.55C554.942 487.216 603.982 504.26 612.072 524.05C619.229 541.555 572.353 538.66 546.074 548.393C519.795 558.126 479.667 585.579 471.573 566.55Z" fill="#98C3E8"/>
<mask id="mask0" mask-type="alpha" maskUnits="userSpaceOnUse" x="20" y="64" width="648" height="490">
<path d="M606.962 76.9443C466.39 14.869 410.042 197.479 315.141 230.024C220.694 276.339 127.118 228.084 71.3641 273.416C-17.0125 345.272 25.8608 465.217 85.0062 514.486C169.824 585.139 316.342 554.544 466.39 471.093C654.38 366.539 730.22 131.374 606.962 76.9443Z" fill="#98C3E8"/>
</mask>
<g mask="url(#mask0)">
<rect x="-85.083" y="-16.5983" width="805.162" height="681.485" fill="url(#paint0_linear)"/>
<path d="M16.5085 200.467C90.336 237.697 172.998 341.904 172.998 391.662C172.998 452.869 43.221 546.678 -16.3037 599.893L491.655 632.705C473.566 551.726 427.894 371.7 455.688 331.716C491.655 279.974 637.207 292.594 718.816 302.059L740.902 71.7424C701.148 88.3588 612.177 136.105 563.589 123.485C518.615 111.803 432.34 61.4359 395.742 29.4651" stroke="white" stroke-opacity="0.2" stroke-width="15"/>
<path d="M206.441 143.677C226.634 248.844 281.531 441.637 339.583 371.469C412.149 283.76 469.57 170.179 523.837 245.269C567.25 305.34 631.107 423.843 657.61 475.585" stroke="white" stroke-opacity="0.2" stroke-width="15"/>
<path fill-rule="evenodd" clip-rule="evenodd" d="M434 205C434 209.418 430.418 213 426 213C421.582 213 418 209.418 418 205C418 200.582 421.582 197 426 197C430.418 197 434 200.582 434 205ZM103 378C107.418 378 111 374.418 111 370C111 365.582 107.418 362 103 362C98.5817 362 95 365.582 95 370C95 374.418 98.5817 378 103 378ZM277 480C281.418 480 285 476.418 285 472C285 467.582 281.418 464 277 464C272.582 464 269 467.582 269 472C269 476.418 272.582 480 277 480ZM551 362C555.418 362 559 358.418 559 354C559 349.582 555.418 346 551 346C546.582 346 543 349.582 543 354C543 358.418 546.582 362 551 362Z" fill="white" fill-opacity="0.6"/>
<circle cx="73" cy="457" r="18" stroke="white" stroke-opacity="0.4" stroke-width="8"/>
<circle cx="653" cy="180" r="18" stroke="white" stroke-opacity="0.4" stroke-width="8"/>
<circle cx="403" cy="413" r="18" stroke="white" stroke-opacity="0.4" stroke-width="8"/>
</g>
<g filter="url(#filter0_d)">
<rect x="453" y="134" width="88" height="88" rx="10" fill="white"/>
</g>
<path d="M493 194V182H501V194H511V178H517L497 160L477 178H483V194H493Z" fill="#5A98D0"/>
<g filter="url(#filter1_d)">
<path d="M440.423 10.7564H412.992C409.207 10.7564 406.139 13.0422 406.139 15.8619V36.2951C406.139 39.1147 409.207 41.4005 412.992 41.4005H440.423C444.208 41.4005 447.277 39.1147 447.277 36.2951V15.8619C447.277 13.0422 444.208 10.7564 440.423 10.7564Z" fill="#56CCF2"/>
</g>
<path d="M437 25.0074H432.83L436.07 22.5772L434.66 21.5121L430 25.0074H428V23.5073L432.66 20.012L431.24 18.9545L428 21.3846V18.2569H426V21.3846L422.76 18.9545L421.34 20.012L426 23.5073V25.0074H424L419.34 21.5121L417.93 22.5772L421.17 25.0074H417V26.5075H421.17L417.93 28.9376L419.34 30.0027L424 26.5075H426V28.0076L421.34 31.5028L422.76 32.5604L426 30.1302V33.2579H428V30.1302L431.24 32.5604L432.66 31.5028L428 28.0076V26.5075H430L434.66 30.0027L436.07 28.9376L432.83 26.5075H437V25.0074Z" fill="white"/>
<g filter="url(#filter2_d)">
<path d="M614.284 88.0114H586.854C583.069 88.0114 580 90.2972 580 93.1168V113.55C580 116.37 583.069 118.656 586.854 118.656H614.284C618.07 118.656 621.138 116.37 621.138 113.55V93.1168C621.138 90.2972 618.07 88.0114 614.284 88.0114Z" fill="#F2C94C"/>
</g>
<path d="M610 100.762C610 97.012 606 94.0118 601 94.0118C596 94.0118 592 97.012 592 100.762C592 103.087 593.6 105.188 596 106.388V108.263C596 109.238 596.8 110.063 598 110.363V110.513C598 111.788 599.3 112.763 601 112.763C602.7 112.763 604 111.788 604 110.513V110.363C605.2 110.063 606 109.238 606 108.263V106.388C608.4 105.188 610 103.087 610 100.762ZM594 100.762C594 97.8371 597.1 95.5119 601 95.5119C604.9 95.5119 608 97.8371 608 100.762C608 103.387 605.4 105.563 602 105.938V104.062L603.7 102.787C604.1 102.487 604.1 102.037 603.7 101.737C603.3 101.437 602.7 101.437 602.3 101.737L601 102.712L599.7 101.737C599.3 101.437 598.7 101.437 598.3 101.737C597.9 102.037 597.9 102.487 598.3 102.787L600 104.062V105.938C596.6 105.563 594 103.387 594 100.762ZM601 111.263C600.4 111.263 600 110.963 600 110.513H602C602 110.963 601.6 111.263 601 111.263ZM604 108.263C604 108.713 603.6 109.013 603 109.013H599C598.4 109.013 598 108.713 598 108.263V107.138C598.9 107.363 599.9 107.513 601 107.513C602.1 107.513 603.1 107.363 604 107.138V108.263Z" fill="white"/>
<g filter="url(#filter3_d)">
<path d="M394.284 88.0114H366.854C363.069 88.0114 360 90.2972 360 93.1168V113.55C360 116.37 363.069 118.655 366.854 118.655H394.284C398.07 118.655 401.138 116.37 401.138 113.55V93.1168C401.138 90.2972 398.07 88.0114 394.284 88.0114Z" fill="#F58A8A"/>
</g>
<g clip-path="url(#clip0)">
<path d="M387 100.012H386V98.5121C386 96.442 383.76 94.7619 381 94.7619C378.24 94.7619 376 96.442 376 98.5121V100.012H375C373.9 100.012 373 100.687 373 101.512V109.013C373 109.838 373.9 110.513 375 110.513H387C388.1 110.513 389 109.838 389 109.013V101.512C389 100.687 388.1 100.012 387 100.012ZM381 106.763C379.9 106.763 379 106.088 379 105.263C379 104.437 379.9 103.762 381 103.762C382.1 103.762 383 104.437 383 105.263C383 106.088 382.1 106.763 381 106.763ZM384.1 100.012H377.9V98.5121C377.9 97.2295 379.29 96.187 381 96.187C382.71 96.187 384.1 97.2295 384.1 98.5121V100.012Z" fill="white"/>
</g>
<g filter="url(#filter4_d)">
<path d="M568.284 10.7564H540.854C537.069 10.7564 534 13.0422 534 15.8619V36.2951C534 39.1147 537.069 41.4005 540.854 41.4005H568.284C572.07 41.4005 575.138 39.1147 575.138 36.2951V15.8619C575.138 13.0422 572.07 10.7564 568.284 10.7564Z" fill="#6FCF97"/>
</g>
<path d="M560.311 21.9295H543.979V29.5851H560.311V21.9295Z" fill="white"/>
<path d="M564.713 23.4529L561.108 24.5893V26.9576L564.713 28.094H566.02V23.4529H564.713Z" fill="white"/>
<path d="M500.39 217C499.274 221.364 500.787 223.88 501.978 224.5C504.34 225.73 506.977 227.27 506.977 227.27C506.977 227.27 523.406 255.414 528.168 257.429C533.724 259.778 546.422 261 546.422 261L551.978 249.889C551.978 249.889 539.279 247.111 533.724 245.921C529.98 245.118 513.486 227.27 513.486 227.27L516.66 221.714H510.708C506.343 218.54 503.977 212 503.977 212C503.977 212 501.153 214.02 500.39 217Z" fill="url(#paint1_linear)"/>
<path d="M565.478 267.5C563.478 265.5 551.978 262.333 546.478 261L551.978 250C554.144 250 560.478 249.5 568.478 247.5C578.478 245 581.978 236 593.478 245.5C602.678 253.1 618.644 286.333 625.478 302C614.731 312.243 607.594 315.569 593.478 318.5C592.644 316.833 590.178 311.2 586.978 302C582.978 290.5 570.478 290.5 568.478 286.5C566.478 282.5 567.978 270 565.478 267.5Z" fill="url(#paint2_linear)"/>
<path d="M601.478 381C597.878 373 597.811 335 596.478 317.5C608.671 315.103 615.111 312.016 625.478 301.5C625.478 301.5 642.478 309.5 641.478 328C640.478 346.5 647.998 355.841 652.478 362C656.478 367.5 665.978 379.167 670.978 387L665.978 396.5C660.478 390.667 644.378 378.8 635.978 372C627.578 365.2 624.811 348.167 623.478 339C622.644 348.667 618.478 366.4 620.478 372C622.478 377.6 643.978 394.5 652.478 403L649.478 411.5C634.978 404.667 605.078 389 601.478 381Z" fill="url(#paint3_linear)"/>
<path d="M559.477 233.5C559.877 231.9 559.311 227.167 559.978 225.5C564.778 226.3 567.477 229.667 568.477 231C569.477 230.833 570.912 230.369 571.477 231.5C571.977 232.5 571.477 234.5 569.977 236L573.477 245.5C571.819 246.577 570.809 246.939 568.977 247.5C569.977 245 569.477 243 568.977 242C565.377 244.8 563.977 244.667 562.477 244.5L560.977 238L558.478 238.5C558.978 237.667 559.077 235.1 559.477 233.5Z" fill="url(#paint4_linear)"/>
<path d="M568.477 231C566.477 228.2 561.644 226.167 559.477 225.5C555.477 222.5 557.477 216 566.977 213C576.477 210 580.477 218 582.477 220C584.477 222 585.477 228.5 594.477 232.5C603.477 236.5 602.977 231.5 608.477 231.5C613.977 231.5 616.477 235 615.477 238C614.477 241 613.977 244.5 619.977 248.5C625.977 252.5 620.477 258 619.977 264C619.477 270 611.477 267 602.977 267C594.477 267 595.977 267 594.477 261.5C592.977 256 590.477 254 587.477 252.5C584.477 251 577.477 252 575.977 250.5C574.777 249.3 571.477 240.333 569.977 236C570.644 235 571.877 232.7 571.477 231.5C571.077 230.3 569.31 230.667 568.477 231Z" fill="#F2994A"/>
<path d="M549.478 291.5L573.478 290C576.278 290.4 580.978 293.833 582.978 295.5C582.311 297 580.378 300 577.978 300C575.578 300 557.978 297 549.478 295.5H547.478V288L549.478 291.5Z" fill="url(#paint5_linear)"/>
<path d="M547.478 299V282H538.978V299H547.478Z" fill="#F2C94C"/>
<path d="M665.978 425.5C663.578 425.1 653.811 415.833 649.478 411.5L652.478 403C654.478 403.833 658.678 405.3 659.478 406.5C660.478 408 668.978 426 665.978 425.5Z" fill="#5A98D0"/>
<path d="M677.978 414.5C676.778 412.5 669.478 402.833 665.978 396.5L670.978 387C673.311 389 673.478 389 675.978 392.5C677.14 394.127 679.478 417 677.978 414.5Z" fill="#5A98D0"/>
<path opacity="0.2" d="M626.478 324.5L623.478 339.5C623.978 345 626.978 358.5 631.978 368C625.978 349 627.978 334.833 626.478 324.5Z" fill="black"/>
<path d="M196 549L194.5 544L202.5 542.5C206.333 544.5 213.7 548.9 212.5 550.5C212.1 551.3 201.333 549.833 196 549Z" fill="#D06262"/>
<path d="M155.5 502L160 509.5C159.667 514.667 158.6 524.8 157 524C155.4 523.2 150.333 510.333 148 504L155.5 502Z" fill="#D06262"/>
<path d="M129.328 456.993C123.999 451.458 119.156 441.024 117.401 436.5C122.529 434.019 133.924 428.352 138.484 425.522C143.044 422.693 151.693 416.274 155.447 413.418C157.637 415.392 164.01 420.262 171.981 423.948C192.452 433.613 204.145 446.095 208.185 457.272C211.418 466.213 198.175 479.449 190.651 484.994C186.292 477.586 183.669 474.59 178.501 467.534L180.257 459.338L169.933 456.271C171.459 458.307 176.461 465.01 184.258 475.54C198.328 493.125 203.2 523.172 203.878 535.997C201.253 536.573 194.79 537.636 189.937 537.279C189.364 531.05 181.559 517.211 174.106 504.959C172.59 506.773 170.489 508.942 169.265 509.054C163.07 507.214 161.151 499.089 160.966 495.256L165.648 491.335C165.006 490.31 164.406 489.349 163.856 488.463C156.193 476.113 135.99 463.912 129.328 456.993Z" fill="#1F3F68"/>
<path d="M157.347 412.239C142.813 423.451 112.728 443.557 108.662 434.291C103.58 422.708 104.576 422.616 101.766 419.36C98.9555 416.103 98.2686 408.635 96.998 405.739C96.3594 404.284 91.211 397.917 87.0954 390.08C87.0954 390.08 86.9717 389.853 86.7625 389.439C83.8406 383.737 81.5329 377.32 81.9125 371.477C82.2029 362.914 88.7162 357.391 88.7162 357.391C92.5981 353.253 96.2389 352.558 97.5 352.669L97.5233 352.685C100.558 354.749 105.045 357.8 106.634 357.654C108.228 357.508 110.5 354.5 112 353C119.606 353.807 121.929 351.859 127.874 352.669C135.205 353.669 155 364 170.5 336.5C172.04 336.861 175.511 338.229 178 338C169.5 363 162 370.781 155 373.231C149.628 375.112 145.395 375.636 142.052 375.602C141.438 378.863 140.623 384.224 139.263 389.691C142.058 394.807 145.012 399.505 147.332 401.612C153.358 407.083 160.163 410.102 157.347 412.239Z" fill="white"/>
<path d="M157.062 441.89L170.477 456.723L180.258 459.338L179.674 463.911C181.919 461.027 184.797 454.101 178.346 449.472C171.895 444.844 161.469 442.489 157.062 441.89Z" fill="black" fill-opacity="0.2"/>
<path d="M165.625 491.313L173.923 505.111L172.567 506.742C171.342 504.344 168.126 502.129 165.408 499.869C163.233 498.061 162.777 494.922 162.821 493.579L165.625 491.313Z" fill="black" fill-opacity="0.2"/>
<path d="M127.067 416.028C112.87 414.522 95.6038 399.675 88.7456 392.439C104.604 406.546 123.032 410.374 128.87 408.331C133.54 406.696 137.12 394.527 139.001 389.5L142.799 396.003C143.471 403.306 141.265 417.534 127.067 416.028Z" fill="black" fill-opacity="0.2"/>
<path d="M121.967 387.877C118.82 388.452 110.674 381.551 107.019 378.206C120.474 388.014 120.5 383 137.5 371C136.762 372.072 129.5 386.5 121.967 387.877Z" fill="black" fill-opacity="0.2"/>
<path d="M142.5 373.5C140.787 373.156 139.296 372.576 137.5 371L139 367.5C138.833 366.667 138.6 364.8 139 364C139.4 363.2 141 362.333 141.5 362L141 364.5L143.5 361.5L147.5 365L147 368.5L144 370L142.5 373.5Z" fill="#F2994A"/>
<path d="M179 333L178 338C176.4 338.4 172.167 337.167 170.5 336.5C171 335 172.6 331 173 329C173.4 327 177.167 324.833 179 324H181L179 327.5V333Z" fill="#F2994A"/>
<path d="M94.9997 342.5C95.7997 344.1 97.9997 347.5 98.9997 349C99.6664 347.667 100.6 344.7 98.9997 343.5C97.3997 342.3 95.9997 340.333 95.4998 339.5C95.9998 339.167 97.2998 338.5 98.4998 338.5C97.6998 332.5 101.833 330.333 104 330L112.5 329.5L113 332C116.166 329 121.9 322.5 119.5 320.5C116.5 318 107.5 324.5 101.5 324.5C95.4998 324.5 92.9997 327.5 91.4997 330.5C89.9997 333.5 93.9997 340.5 94.9997 342.5Z" fill="#316099"/>
<path d="M106.5 358C104.9 358 100.333 354.833 97.5 353C98.8333 352.333 99.5 349.8 99.5 349C99.5 348 100.5 344 99.5 343.5C98.5 343 95.5 341 95.5 340C95.5 339.2 97.5 339 98.5 339C98.1667 337.333 98.1 333.5 100.5 331.5C102.9 329.5 109.5 329.333 112.5 329.5C112.667 330.167 113.3 333 114.5 339C115.7 345 113 347.833 111.5 348.5L112 353C110.833 354.5 108.1 358 106.5 358Z" fill="#F2994A"/>
<path d="M202.5 542.5L202 536.5C198.469 537.446 196.371 537.613 192.5 537.5L194.5 544L202.5 542.5Z" fill="#98C3E8"/>
<path d="M160 509.5L166 507.5C163.322 504.423 162.421 502.668 161.5 499.5L155.5 502L160 509.5Z" fill="#98C3E8"/>
<rect opacity="0.8" x="187" y="262" width="266.284" height="189.301" rx="5" fill="url(#paint6_linear)"/>
<path d="M187 267C187 264.239 189.239 262 192 262H263.983V451.301H192C189.239 451.301 187 449.063 187 446.301V267Z" fill="white"/>
<circle cx="199" cy="274" r="4" fill="#FA9595"/>
<circle cx="212" cy="274" r="4" fill="#FDF397"/>
<circle cx="224" cy="274" r="4" fill="#C1FEBB"/>
<path opacity="0.4" fill-rule="evenodd" clip-rule="evenodd" d="M196 368H254V375H196V368ZM196 382H254V389H196V382ZM235 398H196V405H235V398Z" fill="#5A98D0"/>
<path opacity="0.1" fill-rule="evenodd" clip-rule="evenodd" d="M373 287H431V294H373V287ZM373 301H431V308H373V301ZM412 317H373V324H412V317Z" fill="black"/>
<g filter="url(#filter5_d)">
<rect x="179" y="288" width="81" height="50" rx="5" fill="#56CCF2"/>
</g>
<path d="M203.344 310.136C202.688 309.24 201.76 308.792 200.544 308.792C199.44 308.792 198.512 309.192 197.728 310.008C196.944 310.824 196.56 311.816 196.56 313C196.56 314.168 196.944 315.176 197.728 315.992C198.512 316.808 199.44 317.208 200.544 317.208C201.76 317.208 202.688 316.76 203.344 315.848V317H205.072V309H203.344V310.136ZM199.008 314.84C198.528 314.344 198.288 313.736 198.288 313C198.288 312.264 198.528 311.656 199.008 311.176C199.488 310.68 200.096 310.44 200.816 310.44C201.536 310.44 202.144 310.68 202.624 311.176C203.104 311.656 203.344 312.264 203.344 313C203.344 313.736 203.104 314.344 202.624 314.84C202.144 315.32 201.536 315.56 200.816 315.56C200.096 315.56 199.488 315.32 199.008 314.84ZM212.078 305.592C209.71 305.448 208.462 306.648 208.462 308.84V309H207.246V310.664H208.462V317H210.19V310.664H212.078V309H210.19V308.84C210.19 307.672 210.814 307.144 212.078 307.256V305.592ZM215.617 309H213.889V317H215.617V312.968C215.617 312.152 215.857 311.56 216.353 311.208C216.849 310.84 217.425 310.68 218.081 310.728V308.856C216.881 308.856 216.049 309.352 215.617 310.344V309ZM221.79 307.48C222.238 307.032 222.238 306.36 221.806 305.928C221.374 305.48 220.67 305.48 220.238 305.928C219.806 306.36 219.806 307.032 220.238 307.48C220.686 307.912 221.358 307.912 221.79 307.48ZM221.886 317V309H220.158V317H221.886ZM231.028 310.136C230.372 309.24 229.444 308.792 228.228 308.792C227.124 308.792 226.196 309.192 225.412 310.008C224.628 310.824 224.244 311.816 224.244 313C224.244 314.168 224.628 315.176 225.412 315.992C226.196 316.808 227.124 317.208 228.228 317.208C229.444 317.208 230.372 316.76 231.028 315.848V317H232.756V309H231.028V310.136ZM226.692 314.84C226.212 314.344 225.972 313.736 225.972 313C225.972 312.264 226.212 311.656 226.692 311.176C227.172 310.68 227.78 310.44 228.5 310.44C229.22 310.44 229.828 310.68 230.308 311.176C230.788 311.656 231.028 312.264 231.028 313C231.028 313.736 230.788 314.344 230.308 314.84C229.828 315.32 229.22 315.56 228.5 315.56C227.78 315.56 227.172 315.32 226.692 314.84ZM239.779 308.792C238.643 308.792 237.827 309.208 237.299 310.024V309H235.571V317H237.299V312.712C237.299 311.16 238.115 310.408 239.331 310.408C240.435 310.408 241.123 311.064 241.123 312.264V317H242.851V312.088C242.851 310.04 241.619 308.792 239.779 308.792Z" fill="white"/>
<rect x="281" y="280" width="79" height="77" rx="5" fill="#EB5757"/>
<g clip-path="url(#clip1)">
<path d="M312 305V333L334 319L312 305Z" fill="white"/>
</g>
<g filter="url(#filter6_d)">
<rect x="281" y="370" width="154" height="63" rx="5" fill="#6FCF97"/>
</g>
<path d="M294.5 415C304 408.5 308 400 326 400C344 400 345.58 410 356.5 410C369.5 410 382 390.5 396 390.5C410 390.5 413.5 400.5 421 401" stroke="black" stroke-opacity="0.1" stroke-width="2" stroke-linecap="round" stroke-linejoin="round"/>
<path d="M294 415.5C303.5 409 306 390 324 390C342 390 346.08 406.5 357 406.5C370 406.5 381.5 379.5 395.5 379.5C409.5 379.5 414 400.5 421.5 401" stroke="white" stroke-width="2" stroke-linecap="round" stroke-linejoin="round"/>

</symbol><symbol id="img-menu" viewBox="0 0 24 16">
<path d="M0 16H24V13.3333H0V16ZM0 9.33333H24V6.66667H0V9.33333ZM0 0V2.66667H24V0H0Z" fill="#356EAD"/>
</symbol><symbol id="img-suit" viewBox="0 0 171 132">
<path d="M171 66.5C170.993 78.5373 167.645 90.3405 161.32 100.616C154.996 110.892 145.941 119.244 135.147 124.756C134.661 125.008 134.172 125.251 133.679 125.483L133.577 125.534L133.226 125.701C132.935 125.842 132.65 125.973 132.354 126.105C130.51 126.943 128.617 127.696 126.678 128.363C125.577 128.743 124.464 129.095 123.34 129.419L121.995 129.787C107.027 133.739 91.1354 132.368 77.081 125.913C76.5052 125.645 75.9294 125.372 75.3638 125.089L74.3446 124.584C64.2575 119.344 55.7007 111.618 49.498 102.15C48.8457 101.163 48.2241 100.153 47.633 99.1186C47.1064 98.2194 46.5968 97.3085 46.1042 96.3857C41.3168 87.1395 38.8272 76.8931 38.8428 66.5C38.8428 65.2741 38.8768 64.055 38.9448 62.8426C39.9001 45.8104 47.5204 29.8196 60.1848 18.2713C72.8493 6.72297 89.5587 0.528265 106.759 1.00471C123.96 1.48115 140.294 8.59114 152.288 20.8225C164.283 33.0539 170.99 49.4415 170.985 66.5H171Z" fill="url(#paint0_linear)"/>
<path d="M91.9449 64.1711C91.9449 64.1711 77.1674 57.2251 75.8832 47.6673C74.5991 38.1096 75.5011 28.9761 82.8644 26.42C82.8644 26.42 87.5219 11.6994 104.032 17.6149C120.542 23.5304 117.938 41.2921 126.963 43.4189C135.987 45.5456 152.839 36.589 156.054 47.5158C159.269 58.4426 148.696 57.7757 141.669 67.0506C134.642 76.3255 145.496 81.1953 143.508 87.5806C141.521 93.9659 134.015 98.3558 134.015 98.3558L91.9449 64.1711Z" fill="url(#paint1_linear)"/>
<path d="M71.71 85.1357L75.8833 96.3857H76.3369L82.8645 67.0507C78.742 70.6323 71.71 85.1357 71.71 85.1357Z" fill="url(#paint2_linear)"/>
<path d="M64.3821 100.654L61.7374 101.973C58.4558 103.923 53.5537 103.367 53.5537 103.367C56.2035 106.322 71.1237 109.667 75.3175 109.581L76.092 99.1136H66.7975L64.3821 100.654Z" fill="url(#paint3_linear)"/>
<path d="M133.679 125.468L133.577 125.519L133.226 125.685C132.935 125.827 132.65 125.958 132.354 126.09C130.51 126.928 128.617 127.681 126.678 128.348C125.577 128.728 124.464 129.08 123.34 129.403L121.995 129.772C107.027 133.724 91.1355 132.353 77.0811 125.898C76.5053 125.63 75.9295 125.357 75.3639 125.074L74.3447 124.569C74.4874 120.235 74.7065 115.047 75.0275 109.576C75.2314 106.156 75.4811 102.625 75.7766 99.1187C75.8531 98.2043 75.9346 97.295 76.0161 96.3857C77.2187 83.4636 79.1449 71.481 82.2329 67.672L82.2787 67.6215C82.6708 67.0866 83.2239 66.6887 83.8584 66.4849C88.3172 65.4341 91.4612 65.0805 91.9555 64.1712C92.4498 63.2619 91.9555 61.4736 91.9555 61.4736L92.8421 61.3524C94.1314 61.1604 96.6333 60.7563 99.0029 60.1501C99.0178 60.1547 99.0338 60.1547 99.0487 60.1501C101.143 59.6096 103.125 58.9124 104.093 58.0739L106.081 63.3124C106.081 63.3124 121.026 61.4383 126.861 67.0709C126.897 67.0971 126.929 67.1277 126.958 67.1618C127.019 67.2169 127.077 67.276 127.131 67.3386C127.478 67.7025 127.787 68.1003 128.053 68.5258C129.954 71.5568 131.299 83.7212 132.232 96.9162C132.446 99.9472 132.64 103.079 132.808 106.146C133.195 113.228 133.485 120.088 133.679 125.468Z" fill="url(#paint4_linear)"/>
<path opacity="0.15" d="M133.577 125.534L133.226 125.701C132.935 125.842 132.65 125.973 132.355 126.105C130.51 126.943 128.618 127.696 126.678 128.363C125.577 128.743 124.465 129.095 123.34 129.419C116.456 122.149 113.725 112.713 113.725 112.713L132.798 106.146L133.577 125.534Z" fill="black"/>
<path d="M126.856 67.0507C133.76 73.7694 135.263 87.8737 133.99 98.371C132.716 108.868 130.351 118.699 125.439 118.396C120.527 118.093 103.527 106.403 96.959 100.028L100.796 92.7283L114.677 98.462V83.1807L126.856 67.0507Z" fill="url(#paint5_linear)"/>
<path d="M126.856 67.0507C133.76 73.7694 135.263 87.8737 133.99 98.371C132.716 108.868 130.351 118.699 125.439 118.396C120.527 118.093 103.527 106.403 96.959 100.028L100.796 92.7283L114.677 98.462V83.1807L126.856 67.0507Z" fill="url(#paint6_linear)"/>
<g filter="url(#filter0_d)">
<path d="M91.1453 96.3856H27.4541V99.1186H91.1453V96.3856Z" fill="url(#paint7_linear)"/>
<path d="M63.4347 62.8425H15L27.4539 96.3856H75.8835L63.4347 62.8425Z" fill="url(#paint8_linear)"/>
</g>
<path d="M41.9971 99.1187C41.9971 99.1187 50.354 103.266 55.6638 103.367C60.9735 103.468 66.803 99.1187 66.803 99.1187H41.9971Z" fill="url(#paint9_linear)"/>
<path d="M100.796 92.7283C100.796 92.7283 93.4483 89.0507 90.2839 88.6465C87.1194 88.2424 77.2949 96.3857 77.2949 96.3857H91.1552L96.9745 100.028L100.796 92.7283Z" fill="url(#paint10_linear)"/>
<path d="M103.471 49.789C103.508 52.5552 103.712 55.3167 104.083 58.0586C100.796 59.8924 96.9488 60.8775 92.8315 61.3574L92.592 58.0586L92.4493 56.038V55.9723C91.6556 55.9546 90.8732 55.783 90.1461 55.4671C85.1726 53.3404 84.1025 42.944 84.1025 42.944C86.095 42.8632 88.6887 39.3018 88.6887 39.3018C90.141 41.5043 96.8775 45.7578 100.786 44.6161C104.694 43.4744 104.389 40.7415 104.389 40.7415C105.095 41.037 105.707 41.5193 106.156 42.1357C106.605 42.7522 106.875 43.4791 106.936 44.2372C107.145 46.9045 103.471 49.789 103.471 49.789Z" fill="url(#paint11_linear)"/>
<path opacity="0.15" d="M100.134 52.7241C99.212 54.2699 95.0386 56.7301 92.5978 58.0688L92.4551 56.0481C92.6079 56.0481 92.7557 55.9976 92.8984 55.9673C94.8911 55.6177 96.8038 54.9143 98.5444 53.8911C98.5652 53.883 98.5843 53.871 98.6005 53.8557C99.1236 53.5491 99.6136 53.1903 100.063 52.7847L100.134 52.7241Z" fill="black"/>
<path opacity="0.15" d="M108.949 96.1029L119.762 100.488L114.667 96.8455V83.2059C114.667 83.2059 113.072 95.0572 108.949 96.1029Z" fill="black"/>

</symbol></svg>